<svg width="120" height="41" viewBox="0 0 120 41" fill="none" xmlns="http://www.w3.org/2000/svg">
<path d="M0 3.28C0 1.46851 1.46851 0 3.28 0H33.422C36.2945 0 37.7794 3.43068 35.8133 5.52495L24.2058 17.8895C23.0382 19.1333 23.0189 21.0645 24.1615 22.3313L36.0601 35.5232C37.9632 37.6331 36.4659 41 33.6245 41H3.28C1.46851 41 0 39.5315 0 37.72V3.28Z" fill="#3C50E0"/>
<path d="M43.412 9.304H56.516C59.276 9.304 61.352 9.988 62.744 11.356C64.136 12.7 64.832 14.596 64.832 17.044C64.832 20.5 63.392 22.804 60.512 23.956L65.552 34H59.9L55.544 24.784H48.632V34H43.412V9.304ZM56.048 20.428C57.176 20.428 58.04 20.128 58.64 19.528C59.24 18.928 59.54 18.1 59.54 17.044C59.54 15.988 59.24 15.172 58.64 14.596C58.04 14.02 57.176 13.732 56.048 13.732H48.632V20.428H56.048ZM73.8925 34.432C72.4285 34.432 71.0845 34.048 69.8605 33.28C68.6365 32.512 68.0245 31.12 68.0245 29.104C68.0245 26.68 69.0205 24.964 71.0125 23.956C73.0045 22.924 75.8245 22.408 79.4725 22.408V21.076C79.4725 20.236 79.2805 19.588 78.8965 19.132C78.5365 18.676 77.8405 18.448 76.8085 18.448C75.7045 18.448 74.9125 18.616 74.4325 18.952C73.9765 19.288 73.7485 19.684 73.7485 20.14V20.68H68.9965C68.9725 20.536 68.9605 20.272 68.9605 19.888C68.9605 18.304 69.6565 17.032 71.0485 16.072C72.4645 15.112 74.3365 14.632 76.6645 14.632C79.2565 14.632 81.1885 15.16 82.4605 16.216C83.7565 17.272 84.4045 18.796 84.4045 20.788V29.14C84.4045 29.572 84.5245 29.896 84.7645 30.112C85.0045 30.304 85.3045 30.4 85.6645 30.4H86.6725V33.856C85.9045 34.24 84.9565 34.432 83.8285 34.432C82.8445 34.432 82.0165 34.216 81.3445 33.784C80.6965 33.352 80.2525 32.74 80.0125 31.948H79.7965C79.1005 32.764 78.2965 33.388 77.3845 33.82C76.4965 34.228 75.3325 34.432 73.8925 34.432ZM75.4405 30.544C76.8325 30.544 77.8525 30.16 78.5005 29.392C79.1485 28.6 79.4725 27.556 79.4725 26.26V25.684C75.1765 25.684 73.0285 26.644 73.0285 28.564C73.0285 29.164 73.2205 29.644 73.6045 30.004C74.0125 30.364 74.6245 30.544 75.4405 30.544ZM89.5404 7.972H94.4724V34H89.5404V7.972ZM105.896 34.432C103.496 34.432 101.636 33.616 100.316 31.984C98.9959 30.328 98.3359 27.832 98.3359 24.496C98.3359 21.232 98.9959 18.772 100.316 17.116C101.66 15.46 103.436 14.632 105.644 14.632C106.916 14.632 108.032 14.86 108.992 15.316C109.976 15.772 110.744 16.42 111.296 17.26H111.512V7.972H116.444V34H112.232L111.908 31.516H111.656C111.056 32.476 110.252 33.208 109.244 33.712C108.236 34.192 107.12 34.432 105.896 34.432ZM107.48 30.148C110.168 30.148 111.512 28.384 111.512 24.856V24.28C111.512 20.704 110.168 18.916 107.48 18.916C106.016 18.916 104.972 19.36 104.348 20.248C103.724 21.112 103.412 22.432 103.412 24.208V24.856C103.412 26.632 103.724 27.964 104.348 28.852C104.972 29.716 106.016 30.148 107.48 30.148Z" fill="#01015E"/>
</svg>
